<svg width="140" height="35" viewBox="0 0 140 35" fill="none" xmlns="http://www.w3.org/2000/svg">
<g clip-path="url(#clip0)">
<path d="M9.34833 27.7808H0.725C0.533227 27.781 0.349197 27.7051 0.21328 27.5698C0.0773643 27.4345 0.000661919 27.2509 0 27.0591L0 2.12826C0.000661919 1.93648 0.0773643 1.7528 0.21328 1.61751C0.349197 1.48222 0.533227 1.40637 0.725 1.40659H9.01167C10.0858 1.3974 11.1534 1.57505 12.1667 1.93159C13.0697 2.25028 13.9009 2.74418 14.6125 3.38492C15.2977 4.01402 15.8424 4.78075 16.2107 5.63493C16.5791 6.48911 16.7628 7.41146 16.75 8.34159C16.7092 9.58211 16.3463 10.7907 15.697 11.8485C15.0477 12.9063 14.1343 13.777 13.0467 14.3749C14.1939 14.8359 15.2235 15.5477 16.06 16.4583C17.0589 17.5697 17.6028 19.0165 17.5833 20.5108C17.597 21.4941 17.3995 22.469 17.0041 23.3695C16.6088 24.27 16.0248 25.0752 15.2917 25.7308C14.5308 26.3991 13.6464 26.9118 12.6883 27.2399C11.6135 27.6074 10.4842 27.7903 9.34833 27.7808ZM2.77083 15.8441V25.2541H9.65833C10.288 25.2674 10.9139 25.1531 11.4983 24.9181C12.0827 24.6831 12.6134 24.3322 13.0585 23.8866C13.5037 23.441 13.854 22.9099 14.0884 22.3252C14.3228 21.7406 14.4365 21.1146 14.4225 20.4849C14.4225 17.8833 12.045 15.8441 9.01083 15.8441H2.77083ZM2.84833 4.01076V13.2399H9.015C11.725 13.2399 13.5467 11.3441 13.5467 8.52159C13.5947 7.91517 13.5103 7.30555 13.2992 6.73501C13.0882 6.16447 12.7556 5.64665 12.3245 5.21745C11.8934 4.78825 11.3741 4.45795 10.8027 4.24944C10.2312 4.04093 9.6212 3.9592 9.015 4.00992L2.84833 4.01076Z" fill="white"/>
<path d="M30.084 2.12816C30.0837 2.03358 30.102 1.93986 30.1379 1.85237C30.1739 1.76488 30.2267 1.68535 30.2934 1.61831C30.3602 1.55128 30.4395 1.49806 30.5268 1.46172C30.6141 1.42537 30.7077 1.4066 30.8023 1.40649H32.2648C32.4545 1.41097 32.6351 1.48854 32.769 1.62302C32.9028 1.75749 32.9796 1.93846 32.9832 2.12816V25.254H43.784C43.8786 25.2541 43.9722 25.2729 44.0595 25.3092C44.1468 25.3456 44.2261 25.3988 44.2929 25.4658C44.3596 25.5328 44.4124 25.6124 44.4484 25.6999C44.4843 25.7874 44.5027 25.8811 44.5023 25.9757V27.059C44.5027 27.1536 44.4843 27.2473 44.4484 27.3348C44.4124 27.4223 44.3596 27.5018 44.2929 27.5688C44.2261 27.6359 44.1468 27.6891 44.0595 27.7254C43.9722 27.7618 43.8786 27.7806 43.784 27.7807H30.8282C30.7336 27.7806 30.6399 27.7618 30.5526 27.7254C30.4653 27.6891 30.386 27.6359 30.3193 27.5688C30.2526 27.5018 30.1997 27.4223 30.1638 27.3348C30.1278 27.2473 30.1095 27.1536 30.1098 27.059V2.12816H30.084Z" fill="white"/>
<path d="M92.9059 23.8049C93.0859 23.5733 93.2926 23.3158 93.4726 23.0841C93.8593 22.5949 94.2718 22.2866 94.7868 22.7508C95.0451 22.9824 97.8018 25.6083 101.153 25.6083C104.194 25.6083 106.204 23.7033 106.204 21.4641C106.204 18.8641 103.937 17.3199 99.6068 15.5183C95.4568 13.7216 92.9826 12.0199 92.9826 7.74743C92.9826 5.1991 95.0193 1.05493 100.998 1.05493C103.28 1.08598 105.509 1.74509 107.442 2.95993C107.551 3.02093 107.645 3.10533 107.718 3.20707C107.79 3.30882 107.84 3.42537 107.862 3.54838C107.884 3.67138 107.879 3.79779 107.846 3.91851C107.814 4.03923 107.755 4.15127 107.674 4.2466C107.519 4.47826 107.365 4.73576 107.21 4.96743C107.158 5.08741 107.079 5.19384 106.979 5.27857C106.879 5.3633 106.762 5.42408 106.635 5.45626C106.508 5.48843 106.375 5.49115 106.247 5.4642C106.119 5.43724 105.999 5.38134 105.896 5.30076C105.638 5.1466 103.267 3.5766 100.973 3.5766C96.9768 3.57743 95.7918 6.12576 95.7918 7.7216C95.7918 10.2441 97.6984 11.7108 100.869 13.0241C105.947 15.0833 109.22 17.0141 109.22 21.3633C109.22 25.2758 105.483 28.1324 101.101 28.1324C98.1793 28.089 95.3673 27.0133 93.1626 25.0958C93.0455 25.0426 92.9427 24.9623 92.8628 24.8615C92.7829 24.7607 92.7281 24.6424 92.7031 24.5162C92.678 24.3901 92.6833 24.2597 92.7186 24.1361C92.7538 24.0124 92.8181 23.8989 92.9059 23.8049Z" fill="white"/>
<path d="M129.764 3.93318H123.148C123.053 3.93395 122.958 3.91587 122.87 3.87998C122.781 3.84409 122.701 3.79109 122.633 3.72404C122.565 3.65698 122.511 3.57718 122.474 3.48923C122.437 3.40128 122.418 3.3069 122.418 3.21152V2.12818C122.418 2.0328 122.437 1.93843 122.474 1.85047C122.511 1.76252 122.565 1.68272 122.633 1.61567C122.701 1.54861 122.781 1.49561 122.87 1.45972C122.958 1.42383 123.053 1.40575 123.148 1.40652H139.271C139.367 1.40575 139.461 1.42383 139.55 1.45972C139.638 1.49561 139.718 1.54861 139.786 1.61567C139.854 1.68272 139.908 1.76252 139.945 1.85047C139.982 1.93843 140.001 2.0328 140.001 2.12818V3.21152C140.001 3.3069 139.982 3.40128 139.945 3.48923C139.908 3.57718 139.854 3.65698 139.786 3.72404C139.718 3.79109 139.638 3.84409 139.55 3.87998C139.461 3.91587 139.367 3.93395 139.271 3.93318H132.655V27.059C132.65 27.2502 132.572 27.4321 132.435 27.5665C132.299 27.701 132.117 27.7777 131.925 27.7807H130.493C130.302 27.7773 130.12 27.7004 129.984 27.566C129.848 27.4315 129.77 27.2499 129.765 27.059L129.764 3.93318Z" fill="white"/>
<path d="M80.7797 28.1325H78.6281C78.544 28.1355 78.4611 28.112 78.3912 28.0651C78.3213 28.0183 78.268 27.9506 78.2389 27.8716L68.9831 7.26996C68.9361 7.16513 68.8507 7.08236 68.7445 7.03877C68.6382 6.99518 68.5193 6.99412 68.4122 7.03579C68.3106 7.08578 68.2285 7.16816 68.1789 7.26996L58.9489 27.8725C58.9111 27.9508 58.8519 28.0168 58.7782 28.0629C58.7045 28.1091 58.6192 28.1335 58.5322 28.1333H56.3822C56.266 28.1297 56.1556 28.0818 56.0736 27.9993C55.9916 27.9169 55.9443 27.8062 55.9414 27.69C55.9464 27.6263 55.964 27.5643 55.9931 27.5075L67.0381 2.86829L68.2047 0.264127C68.2515 0.15935 68.3367 0.0765395 68.4428 0.0328052C68.5489 -0.0109292 68.6677 -0.0122458 68.7747 0.0291271C68.8764 0.0791116 68.9585 0.161497 69.0081 0.263294L70.1747 2.86746L81.2206 27.5075C81.246 27.56 81.2601 27.6173 81.262 27.6756C81.2638 27.7339 81.2534 27.792 81.2314 27.846C81.2094 27.9001 81.1763 27.9489 81.1343 27.9894C81.0922 28.0298 81.0421 28.0609 80.9872 28.0808C80.9217 28.1101 80.8514 28.1276 80.7797 28.1325Z" fill="white"/>
<path d="M69.82 13.0874L68.9316 11.0874V35.0041L76.3167 27.7091L69.82 13.0874Z" fill="#F06001"/>
<path d="M67.7085 13.0874L61.2344 27.7057L68.6194 35.0041V11.0874L67.7085 13.0874Z" fill="#F07B13"/>
</g>
<defs>
<clipPath id="clip0">
<rect width="140" height="35" fill="white"/>
</clipPath>
</defs>
</svg>
